# xmcd
#
# Track frame offsets: 
#        150
#        37075
#        72195
#        100025
#        141042
#        185225
#        227685
#
# Disc length: 3585 seconds
#
# Revision: 3
# Processed by: cddbd v1.5.1PL2 Copyright (c) Steve Scherf et al.
# Submitted via: ExactAudioCopy v0.95a5
#
DISCID=5f0dff07
DTITLE=John Keech - Pure Meditation
DYEAR=2003
DGENRE=New Age
TTITLE0=Pure Meditation
TTITLE1=Soaring on the Wings of the Astral Body
TTITLE2=Sandstream
TTITLE3=Boundless Dunes of Tranquility
TTITLE4=Sweet Vision of Rain
TTITLE5=Desert Dreaming
TTITLE6=Portrait of Peace
EXTD=
EXTT0=
EXTT1=
EXTT2=
EXTT3=
EXTT4=
EXTT5=
EXTT6=
PLAYORDER=
